Patient4_TMGait_0pt5_01_left_04_EMG.mot
version=1
nRows=30
nColumns=33
inDegrees=no
endheader
time	1LAddLong	2LGlutMax	3LGlutMed	4LIliopsoas	5LSemiMemb	6LBicFemLong	7LRecFem	8LVastMed	9LVastLat	10LGasMed	11LTibAnt	12lTibPost	13LPeroneusLong	14LSol	15LExtDigLong	16LFlexDigLong	17RAddLong	18RGlutMax	19RGlutMed	20RIliopsoas	21RSemiMemb	22RBicFemLong	23RRecFem	24RVastMed	25RVastLat	26RGasMed	27RTibAnt	28RTibPost	29RPeroneusLong	30RSol	31RExtDigLong	32RFlexDigLong
5.23	-0.003357	0.55206	-0.057373	0.037079	-0.001984	0.013123	-0.051727	0.000458	-0.2214	-0.017548	-0.030975	0.005951	0.070953	0.062866	-0.64194	0.007629	0.011749	0.37949	0.36148	0.1033	-0.11902	-0.19974	0.020752	-0.027771	-0.06958	0.016174	-0.34241	0.001068	-1.0867	-0.12619	-0.00351	0.000305
5.231	0.007324	0.59418	-0.056458	0.007629	-0.00885	0.005188	-0.080109	0.005646	-0.2359	-0.01236	-0.11749	0.005493	0.056152	0.11063	0.13718	0.002899	-0.002899	0.38925	0.38986	0.13763	-0.05249	0.31235	-0.076752	0.010529	-0.041199	0.008087	-0.31769	-0.000153	0.93536	0.02594	-0.003357	-0.01236
5.232	0.00824	0.56595	-0.036316	-0.010834	-0.00351	0.013733	0.020447	0.000916	-0.2533	-0.009308	-0.082855	0.003357	0.027161	0.10132	-0.23758	0.005341	-0.011749	0.28778	0.13718	0.10117	0.13931	0.6015	-0.018311	0.093536	-0.018005	-0.004883	-0.18677	-0.006866	2.3782	0.077209	-0.001984	-0.018768
5.233	0.007172	0.5632	-0.043488	0.013733	0.00473	0.013733	0.17731	-0.001068	-0.27954	-0.039368	-0.062866	0.004883	0.056458	0.082092	-0.30823	0.004272	0	0.26138	0.30762	0.069885	0.16678	0.71686	-0.032196	0.058289	-0.034027	0	-0.26382	-0.002136	0.3952	-0.023651	-0.002747	-0.015106
5.234	0.007172	0.54672	-0.042114	0.006256	-0.001984	-0.000153	0.2919	0.00351	-0.29373	-0.056152	0.019989	0.003204	0.093384	0.038757	-0.19745	-0.001678	-0.05127	0.2092	0.14786	0.00061	0.50125	0.51361	-0.046997	0.13931	0.05722	-0.003815	0.018921	-0.002747	-0.15045	0.089111	-0.003052	-0.023346
5.235	0.010071	0.51376	-0.038147	0.001526	0.005493	0.000305	0.18723	0.007019	-0.32257	-0.037689	0.12222	0.00473	0.074463	0.045319	-0.031433	0.004425	-0.039215	0.12283	0.19882	-0.041351	0.31601	0.18066	0.031891	0.14771	0.12329	0.001221	0.30731	-0.001678	0.48538	-0.10971	-0.005035	-0.015869
5.236	0.007629	0.49972	-0.041199	-0.003662	0.005341	-0.00061	0.096283	0.018158	-0.36423	0.006104	0.062714	-0.000153	0.023193	0.054932	0.11978	0.013885	0.006714	0.14221	0.46921	-0.089874	0.087891	-0.10223	0.21515	0.054169	0.042725	-0.007782	0.31479	-0.001068	-1.6278	-0.083923	-0.002747	-0.013123
5.237	0.010681	0.47104	-0.046692	0.01236	0.005035	0.017548	0.00412	0.027466	-0.3949	0.04425	-0.000153	0.003052	0.037231	0.011749	0.014801	0.024567	-0.000763	0.13916	0.37491	-0.040741	0.097046	-0.14313	0.16907	0.026398	0.067749	-0.009308	0.70633	-0.000305	-2.6207	-0.054321	-0.002899	-0.01297
5.238	0.005951	0.42999	-0.043182	0.001373	0.008545	0.020447	-0.14084	0.029755	-0.39398	0.054321	-0.043945	0.003204	0.038147	-0.036316	-0.029755	0.027618	-0.019684	0.11459	0.24735	0.092163	0.066376	0.033722	-0.023956	0.036316	0.10422	-0.007019	0.62012	-0.00473	-0.83038	-0.049438	0.001373	-0.007324
5.239	0.00824	0.36789	-0.037689	0.014343	-0.00885	0.006714	-0.16342	0.030975	-0.33142	-0.010529	-0.043793	0.005646	0.061798	-0.03479	-0.086975	0.00885	-0.003052	0.065765	0.10407	0.14771	0.023193	0.10819	-0.068665	0.024414	0.087433	-0.012207	-0.095367	-0.005951	1.0519	-0.028076	-0.001068	-0.013733
5.24	0.010223	0.31265	-0.050812	0.004883	-0.01358	0.010986	-0.18433	0.032806	-0.27618	0.042877	0.008392	0.002594	0.06134	-0.046234	-0.11368	0.018921	0.024414	0.028229	-0.23911	0.076294	0.001526	0.15579	0.10147	-0.018158	0.063019	-0.005493	-0.50034	0.00061	0.57754	-0.096283	-0.004578	0.001068
5.241	0.012817	0.28931	-0.051117	0.004272	-0.007324	0.023346	-0.19806	0.036926	-0.21668	-0.043488	0.12451	0.002747	0.043335	-0.04303	0.094604	0.025177	0.006409	0.013123	-0.30228	-0.028992	-0.1059	0.27603	0.11841	-0.084076	0.062866	0.010529	-0.78125	-0.000305	0.38452	-0.21881	-0.00473	0.004272
5.242	0.00946	0.25513	-0.048065	0.010681	-0.005188	0.01236	-0.23193	0.031128	-0.16663	-0.088806	0.15182	-0.001373	0.041962	0.001068	0.21057	0.018616	-0.00061	-0.094757	-0.18204	-0.083923	-0.27374	0.27374	0.061188	-0.050964	0.057526	0.000305	-0.67429	-0.000916	0.56686	-0.070343	-0.002747	0.002136
5.243	0.00885	0.22232	-0.04364	0.001678	-0.000916	0.016022	-0.16907	0.023956	-0.12085	-0.074158	0.22797	-0.005493	0.044708	0.041046	0.2388	0.022888	0.004883	-0.11749	-0.19302	-0.054169	-0.25787	0.21576	0.14633	0.070801	0.015411	-0.011749	-0.15762	-0.00351	0.70984	0.010071	0	-0.003052
5.244	0.014648	0.21347	-0.042267	-0.003662	-0.018921	-0.005188	0.009766	0.014648	-0.08728	-0.054321	0.046539	0.00473	0.070648	0.032196	0.43564	0.012512	0.00412	-0.079498	-0.084991	0.001373	0.1062	0.17227	0.20966	0.088196	-0.015717	-0.024414	0.13153	-0.002441	0.4483	0.002899	0.006104	-0.010834
5.245	0.015106	0.15533	-0.043182	0.012512	-0.005035	-0.005493	0.11566	0.010834	-0.029755	-0.052338	-0.26184	-0.002136	0.10864	0.034943	-0.11536	0.023956	0.001221	-0.0354	0.049896	0.087738	0.34164	0.038147	0.2153	0.10513	0.0177	-0.013123	0.27329	-0.00061	1.0033	0.074005	-0.003662	-0.003967
5.246	0.012054	0.14236	-0.046692	0.011292	-0.009155	-0.007172	0.14191	0.007477	-0.011139	-0.036621	-0.19989	0.000305	0.072632	0.10712	0.046082	0.024414	0.005798	-0.11261	-0.21835	0.19379	0.15152	0.051727	0.018616	0.062408	0.05722	0.001831	0.30609	0.000153	-0.78461	-0.036011	-0.003052	-0.004425
5.247	0.014648	0.13397	-0.036926	0.01297	-0.018768	-0.01297	0.17044	0.005035	-0.007324	0.008392	-0.12314	0.003967	0.045471	0.084991	-0.07843	0.01358	-0.010376	-0.10712	0.014648	0.090027	0.052185	0.01236	-0.06134	0.004578	0.020447	-0.003052	0.34927	0.00351	-0.21561	-0.11612	-0.002136	-0.003967
5.248	0.009613	0.099945	-0.049133	0.016785	-0.014648	0.003967	0.23163	-0.008545	0.005035	0.03418	-0.15289	0.005798	0.049286	0.007629	-0.1181	0.01236	-0.00351	-0.043335	0.383	-0.020294	0.031281	0.05661	0.071564	-0.053558	0.009003	-0.001068	0.49896	-0.000305	0.59631	-0.081024	-0.00412	-0.005035
5.249	0.015106	0.10651	-0.057678	0.001221	-0.010223	0.001526	0.21072	-0.001984	0.011597	0.04715	-0.15472	-0.005035	0.07309	-0.061951	-0.12756	0.00885	0.00351	-0.024109	0.36087	-0.10559	0.019684	0.17716	0.14938	-0.055695	0.022278	0.016327	0.57571	-0.004883	0.046692	-0.12329	-0.00473	-0.001526
5.25	0.01297	0.081787	-0.039673	0.006256	-0.003052	0.009918	0.11429	-0.001221	0.00061	0.037689	-0.1329	-0.004425	0.06958	-0.021667	-0.10407	0.006866	0.004425	-0.10834	0.40161	-0.12085	-0.00473	0.15121	0.14999	-0.094147	-0.009613	0.003052	0.77652	-0.000763	-0.11459	-0.10666	-0.006714	-0.012207
5.251	0.010529	0.076141	-0.019379	0.000458	-0.005493	0.027161	0.093079	0.00885	0.019073	0.014954	-0.11185	0.008545	0.090485	-0.02121	-0.076294	0.009613	0.000763	-0.1918	0.31937	-0.08255	-0.002441	0.13565	0.24063	-0.099945	-0.07431	0.004883	-0.016479	-0.001526	0.50552	-0.087738	-0.002289	-0.014343
5.252	0.014343	0.067139	-0.011292	0.004578	-0.002594	0.048218	0.2005	0.004272	0.037537	0.00824	0.075836	-0.000763	0.076904	0.054016	0.099945	0.010529	-0.005188	-0.2002	-0.15198	-0.047455	-0.011292	0.094299	0.28992	-0.093536	-0.055084	0.006714	-0.14038	-0.000763	0.40375	0.099945	-0.005035	-0.007935
5.253	0.013733	0.077972	-0.036163	0.011444	-0.007172	0.03418	0.17944	0.00885	0.049133	0.002747	0.26718	0.001984	0.047607	0.09201	0.31891	0.008087	-0.011139	-0.29312	-0.084839	-0.082245	-0.014343	0.061188	0.33707	0.016327	0.18585	-0.005188	-0.37231	-0.00061	-1.6719	0.21118	-0.00824	-0.005188
5.254	0.010681	0.0383	-0.040894	0.010681	-0.004272	0.017242	0.18097	0.011597	0.055237	0.020142	0.15671	-0.000458	0.028839	0.1329	0.32638	0.002594	-0.002289	-0.35431	0.19012	-0.094757	-0.012054	-0.027008	0.233	0.043182	0.34012	-0.000305	-0.73273	-0.001068	-1.7424	-0.075226	-0.002441	0.008087
5.255	0.020294	0.058746	-0.045166	0.010071	-0.000458	0.012512	0.16342	0.012817	0.052185	0.00061	0.083771	0.003662	0.068817	0.14511	0.17731	0.00412	0.001068	-0.42297	0.1033	0.003662	0.001831	-0.068817	0.27298	0.084229	0.31815	-0.00061	-0.77393	0.003357	0.26916	-0.15228	0.005341	-0.002441
5.256	0.014801	0.049744	-0.04837	0.020294	-0.000153	0.005951	0.13123	0.01358	0.075073	-0.018158	0.062256	0.002747	0.089722	0.093079	0.097504	0.015259	-0.014191	-0.4631	-0.11185	0.075073	-0.00946	-0.093994	-0.034943	0.12116	0.30182	0.006256	-0.91019	-0.000458	0.87357	-0.2652	-0.000305	0.001068
5.257	0.009308	0.052948	-0.052948	0.02594	-0.020599	0.008087	0.096283	0.009766	0.066833	-0.038605	0.10361	0.002747	0.079803	0.058441	-0.16586	0.001678	0.014648	-0.41153	-0.32349	0.062561	-0.052032	-0.13611	0.10117	-0.1796	-0.040436	0.00885	-0.64972	-0.001526	0.25391	-0.092773	0.001221	0.006104
5.258	0.00061	0.050659	-0.048828	0.028534	-0.039063	0.003204	0.092316	0.042572	0.068817	0.005188	0.17166	0.00824	-0.027618	0	-0.20615	0.011139	0.032196	-0.31937	-0.072479	-0.003204	-0.069733	-0.16571	-0.071716	-0.25726	-0.17792	0.014191	-0.42191	0.000153	0.042877	-0.021362	0.000763	0.015717
5.259	0.016174	0.065002	-0.038147	0.018311	-0.056915	-0.039825	0.071106	0.009003	0.077667	0.016937	0.069122	0.006866	-0.061646	-0.011292	-0.049286	0.00351	0.029144	-0.32288	0.054321	-0.037994	-0.056763	-0.14145	-0.10773	-0.031433	-0.28351	0.004883	-0.20111	0	0.17685	-0.10437	-0.001831	0.004425
